<?xml version="1.0" encoding="utf-8"?>
<!-- Generator: Adobe Illustrator 17.0.0, SVG Export Plug-In . SVG Version: 6.00 Build 0)  -->
<!DOCTYPE svg PUBLIC "-//W3C//DTD SVG 1.1//EN" "http://www.w3.org/Graphics/SVG/1.1/DTD/svg11.dtd">
<svg version="1.1" id="Capa_2" xmlns="http://www.w3.org/2000/svg" xmlns:xlink="http://www.w3.org/1999/xlink" x="0px" y="0px"
	 width="780px" height="580px" viewBox="-65 16 780 580" enable-background="new -65 16 780 580" xml:space="preserve">
<g>
	<path fill="#3A3A3A" d="M553.476,367.445c-31.891,0-57.837,25.943-57.837,57.837c0,1.02,0.009,2.045,0.064,2.746
		c1.426,30.891,26.803,55.091,57.772,55.091c30.969,0,56.343-24.2,57.752-54.845c0.073-0.947,0.081-1.972,0.081-2.992
		C611.31,393.387,585.367,367.445,553.476,367.445z M594.048,427.231c-1,21.685-18.821,38.673-40.573,38.673
		s-39.576-16.989-40.592-38.92c-0.039-0.544-0.03-1.12-0.03-1.703c0-22.402,18.225-40.624,40.624-40.624
		c22.399,0,40.621,18.222,40.621,40.624C594.096,425.865,594.105,426.441,594.048,427.231z"/>
	<path fill="#3A3A3A" d="M553.476,391.942c-18.381,0-33.337,14.955-33.337,33.339c0,1.03,0.064,2.067,0.154,3.172
		c1.647,17.197,15.914,30.162,33.182,30.162c17.3,0,31.591-12.966,33.252-30.342c0.073-0.947,0.14-1.972,0.14-2.992
		C586.869,406.897,571.888,391.942,553.476,391.942z M569.58,426.805c-0.799,8.321-7.722,14.596-16.103,14.596
		c-8.351,0-15.249-6.276-16.036-14.451c-0.039-0.532-0.087-1.098-0.087-1.67c0-8.892,7.234-16.126,16.123-16.126
		c8.92,0,16.179,7.234,16.179,16.126C569.656,425.865,569.605,426.441,569.58,426.805z"/>
	<path fill="#3A3A3A" d="M673.865,295.527l-69.082-120.839c-1.532-2.684-4.384-4.337-7.472-4.337H485.033v-32.863
		c0-4.752-3.852-8.607-8.607-8.607H98.699c-2.779,0-5.388,1.345-7.004,3.603L-23.397,293.594c-1.045,1.463-1.605,3.216-1.603,5.015
		l0.173,129.031c0.005,4.752,3.858,8.595,8.607,8.595h28.688h57.727c5.111,26.851,28.58,46.883,56.738,46.883
		c28.224,0,51.739-20.123,56.765-46.883h7.963c5.108,26.851,28.553,46.883,56.683,46.883c28.233,0,51.752-20.135,56.765-46.882
		l175.912,0.016c0,0,0.003,0,0.005,0c2.396,0,4.679-1.177,6.31-2.93c1.631-1.76,2.449-4.298,2.267-6.685l0.03-1.356
		c0-35.205,28.64-63.843,63.843-63.843c35.203,0,63.841,28.638,63.841,63.843l0.025,1.709c-0.182,2.393,0.641,4.752,2.272,6.511
		c1.628,1.753,3.914,2.751,6.31,2.751c0.003,0,0.009,0,0.014,0l40.455-0.017c4.755,0,8.607-3.855,8.607-8.607V299.798
		C674.999,298.301,674.607,296.827,673.865,295.527z M167.509,427.231c-1,21.685-18.824,38.673-40.576,38.673
		s-39.573-16.989-40.592-38.954c-0.039-0.532-0.03-1.098-0.03-1.67c0-22.402,18.225-40.624,40.624-40.624
		s40.624,18.222,40.624,40.624C167.557,425.865,167.566,426.441,167.509,427.231z M288.917,427.231
		c-1,21.685-18.821,38.673-40.573,38.673c-21.721,0-39.516-16.989-40.534-38.92c-0.039-0.544-0.03-1.12-0.03-1.703
		c0-22.402,18.197-40.624,40.564-40.624c22.399,0,40.624,18.222,40.624,40.624C288.968,425.853,288.976,426.418,288.917,427.231z
		 M511.474,286.019v-70.393h62.501l35.418,70.393H511.474z"/>
	<path fill="#3A3A3A" d="M126.933,391.942c-18.412,0-33.392,14.955-33.392,33.339c0,1.03,0.064,2.067,0.154,3.172
		c1.647,17.197,15.939,30.162,33.238,30.162c17.269,0,31.535-12.966,33.194-30.308c0.078-0.958,0.143-1.995,0.143-3.025
		C160.27,406.897,145.315,391.942,126.933,391.942z M142.981,426.805c-0.799,8.321-7.696,14.596-16.048,14.596
		c-8.383,0-15.306-6.276-16.092-14.451c-0.039-0.532-0.087-1.098-0.087-1.67c0-8.892,7.259-16.126,16.179-16.126
		c8.89,0,16.124,7.234,16.124,16.126C143.057,425.853,143.01,426.418,142.981,426.805z"/>
	<path fill="#3A3A3A" d="M248.344,391.942c-18.381,0-33.337,14.955-33.337,33.339c0,1.02,0.067,2.045,0.154,3.172
		c1.647,17.197,15.914,30.162,33.183,30.162c17.3,0,31.591-12.966,33.25-30.308c0.078-0.958,0.143-1.995,0.143-3.025
		C281.737,406.897,266.757,391.942,248.344,391.942z M264.447,426.805c-0.799,8.321-7.722,14.596-16.103,14.596
		c-8.351,0-15.249-6.276-16.034-14.417c-0.039-0.544-0.09-1.12-0.09-1.703c0-8.892,7.234-16.126,16.123-16.126
		c8.92,0,16.179,7.234,16.179,16.126C264.523,425.853,264.476,426.418,264.447,426.805z"/>
</g>
</svg>
