<?xml version="1.0" encoding="utf-8"?>
<!-- Generator: Adobe Illustrator 17.0.0, SVG Export Plug-In . SVG Version: 6.00 Build 0)  -->
<!DOCTYPE svg PUBLIC "-//W3C//DTD SVG 1.1//EN" "http://www.w3.org/Graphics/SVG/1.1/DTD/svg11.dtd">
<svg version="1.1" id="Capa_1" xmlns="http://www.w3.org/2000/svg" xmlns:xlink="http://www.w3.org/1999/xlink" x="0px" y="0px"
	 width="792px" height="612px" viewBox="0 0 792 612" enable-background="new 0 0 792 612" xml:space="preserve">
<path d="M282.302,413.941"/>
<path d="M626.159,202.007h-70.517c-4.388,0-7.943,3.558-7.943,7.943v80.848c0,4.385,3.555,7.943,7.943,7.943h111.197
	c2.756,0,5.316-1.427,6.761-3.775c1.448-2.348,1.572-5.274,0.333-7.736l-40.68-80.848
	C631.904,203.698,629.161,202.007,626.159,202.007z M563.585,282.855v-64.963h57.68l32.686,64.963H563.585z M208.708,380.607
	c-16.992,0-30.816,13.801-30.816,30.767c0,0.951,0.059,1.908,0.142,2.927c1.52,15.87,14.709,27.835,30.674,27.835
	c15.937,0,29.102-11.966,30.633-27.97c0.072-0.884,0.132-1.841,0.132-2.792C239.473,394.409,225.672,380.607,208.708,380.607z
	 M223.518,412.781c-0.737,7.679-7.102,13.47-14.81,13.47c-7.736,0-14.125-5.792-14.851-13.336c-0.036-0.491-0.08-1.013-0.08-1.541
	c0-8.206,6.699-14.882,14.931-14.882c8.204,0,14.88,6.676,14.88,14.882C223.588,411.902,223.544,412.424,223.518,412.781z
	 M320.753,380.607c-16.963,0-30.765,13.801-30.765,30.767c0,0.941,0.062,1.887,0.142,2.927c1.52,15.87,14.686,27.835,30.623,27.835
	c15.965,0,29.154-11.966,30.685-27.97c0.072-0.884,0.132-1.841,0.132-2.792C351.57,394.409,337.745,380.607,320.753,380.607z
	 M335.614,412.781c-0.737,7.679-7.126,13.47-14.861,13.47c-7.707,0-14.073-5.792-14.797-13.305
	c-0.036-0.502-0.083-1.034-0.083-1.572c0-8.206,6.676-14.882,14.879-14.882c8.232,0,14.931,6.676,14.931,14.882
	C335.684,411.902,335.64,412.424,335.614,412.781z M602.346,380.607c-16.963,0-30.765,13.801-30.765,30.767
	c0,0.951,0.059,1.908,0.142,2.927c1.52,15.87,14.686,27.835,30.622,27.835c15.965,0,29.154-11.966,30.687-28.001
	c0.067-0.874,0.129-1.82,0.129-2.761C633.163,394.409,619.338,380.607,602.346,380.607z M617.208,412.781
	c-0.737,7.679-7.126,13.47-14.861,13.47c-7.707,0-14.073-5.792-14.799-13.336c-0.036-0.491-0.08-1.013-0.08-1.541
	c0-8.206,6.676-14.882,14.879-14.882c8.232,0,14.931,6.676,14.931,14.882C617.278,411.913,617.231,412.445,617.208,412.781z
	 M602.346,358c-29.431,0-53.375,23.942-53.375,53.375c0,0.941,0.008,1.887,0.059,2.534c1.316,28.508,24.735,50.841,53.315,50.841
	c28.58,0,51.997-22.333,53.297-50.614c0.067-0.874,0.075-1.82,0.075-2.761C655.719,381.941,631.777,358,602.346,358z
	 M639.789,413.174c-0.923,20.012-17.369,35.69-37.443,35.69s-36.523-15.678-37.461-35.918c-0.036-0.502-0.028-1.034-0.028-1.572
	c0-20.674,16.819-37.49,37.49-37.49c20.671,0,37.487,16.816,37.487,37.49C639.833,411.913,639.841,412.445,639.789,413.174z
	 M713.448,291.63l-63.753-111.517c-1.414-2.477-4.046-4.002-6.896-4.002H539.183v-30.328c0-4.385-3.555-7.943-7.943-7.943H182.652
	c-2.565,0-4.972,1.241-6.464,3.325L69.974,289.846c-0.964,1.35-1.481,2.968-1.479,4.628l0.16,119.077
	c0.005,4.385,3.56,7.932,7.943,7.932h26.475h53.274c4.717,24.78,26.375,43.266,52.361,43.266c26.047,0,47.748-18.571,52.386-43.266
	h7.349c4.714,24.78,26.35,43.266,52.31,43.266c26.055,0,47.76-18.582,52.386-43.265l162.342,0.015c0,0,0.003,0,0.005,0
	c2.211,0,4.318-1.086,5.823-2.704c1.505-1.624,2.26-3.966,2.092-6.169l0.028-1.251c0-32.489,26.431-58.918,58.918-58.918
	c32.487,0,58.916,26.429,58.916,58.918l0.023,1.577c-0.168,2.208,0.592,4.385,2.097,6.009c1.502,1.618,3.612,2.539,5.823,2.539
	c0.003,0,0.008,0,0.013,0l37.334-0.016c4.388,0,7.943-3.558,7.943-7.943V295.571C714.495,294.19,714.133,292.83,713.448,291.63z
	 M182.165,334.4l71.543-180.674h67.635L249.8,334.4H182.165z M338.429,153.726h67.635L334.521,334.4h-67.635L338.429,153.726z
	 M423.151,153.726h67.635L419.243,334.4h-67.635L423.151,153.726z M507.872,153.726h15.426V334.4h-86.969L507.872,153.726z
	 M99.089,405.599H84.53l-0.147-108.596l102.357-143.277h49.882L165.079,334.4h-8.902c-2.508,0-4.868,1.184-6.368,3.196
	L99.089,405.599z M246.154,413.174c-0.923,20.012-17.372,35.69-37.446,35.69s-36.52-15.678-37.461-35.949
	c-0.036-0.491-0.028-1.013-0.028-1.541c0-20.674,16.819-37.49,37.49-37.49s37.49,16.816,37.49,37.49
	C246.198,411.913,246.206,412.445,246.154,413.174z M358.196,413.174c-0.923,20.012-17.369,35.69-37.443,35.69
	c-20.045,0-36.468-15.678-37.407-35.918c-0.036-0.502-0.028-1.034-0.028-1.572c0-20.674,16.793-37.49,37.435-37.49
	c20.671,0,37.49,16.816,37.49,37.49C358.243,411.902,358.25,412.424,358.196,413.174z M698.609,405.599l-21.682,0.005
	c-2.955-38.565-35.276-69.033-74.581-69.033c-39.305,0-71.628,30.478-74.584,69.038l-153.961-0.01
	C370.912,378.875,348.231,358,320.753,358c-27.451,0-50.108,20.875-52.995,47.599h-6.001C258.867,378.875,236.186,358,208.708,358
	s-50.158,20.875-53.049,47.599h-36.754l41.255-55.314h371.08c4.388,0,7.943-3.558,7.943-7.943V191.996h99.009l60.418,105.684
	V405.599z"/>
</svg>
