<?xml version="1.0" encoding="utf-8"?>
<!-- Generator: Adobe Illustrator 17.0.0, SVG Export Plug-In . SVG Version: 6.00 Build 0)  -->
<!DOCTYPE svg PUBLIC "-//W3C//DTD SVG 1.1//EN" "http://www.w3.org/Graphics/SVG/1.1/DTD/svg11.dtd">
<svg version="1.1" id="Capa_1" xmlns="http://www.w3.org/2000/svg" xmlns:xlink="http://www.w3.org/1999/xlink" x="0px" y="0px"
	 width="780px" height="580px" viewBox="6 16 780 580" enable-background="new 6 16 780 580" xml:space="preserve">
<path d="M282.302,413.941"/>
<path fill="#3A3A3A" d="M650.279,198.413h-76.411c-4.755,0-8.607,3.855-8.607,8.607v87.606c0,4.752,3.852,8.607,8.607,8.607h120.492
	c2.986,0,5.76-1.546,7.326-4.091c1.569-2.544,1.703-5.715,0.361-8.383l-44.08-87.606
	C656.504,200.245,653.532,198.413,650.279,198.413z M582.474,286.019v-70.393h62.501l35.418,70.393H582.474z M197.933,391.942
	c-18.412,0-33.392,14.955-33.392,33.339c0,1.03,0.064,2.067,0.154,3.172c1.647,17.197,15.939,30.162,33.238,30.162
	c17.269,0,31.535-12.966,33.194-30.308c0.078-0.958,0.143-1.995,0.143-3.025C231.27,406.897,216.315,391.942,197.933,391.942z
	 M213.981,426.805c-0.799,8.321-7.696,14.596-16.048,14.596c-8.383,0-15.306-6.276-16.092-14.451
	c-0.039-0.532-0.087-1.098-0.087-1.67c0-8.892,7.259-16.126,16.179-16.126c8.89,0,16.124,7.234,16.124,16.126
	C214.057,425.853,214.01,426.418,213.981,426.805z M319.344,391.942c-18.381,0-33.337,14.955-33.337,33.339
	c0,1.02,0.067,2.045,0.154,3.172c1.647,17.197,15.914,30.162,33.183,30.162c17.3,0,31.591-12.966,33.25-30.308
	c0.078-0.958,0.143-1.995,0.143-3.025C352.737,406.897,337.757,391.942,319.344,391.942z M335.447,426.805
	c-0.799,8.321-7.722,14.596-16.103,14.596c-8.351,0-15.249-6.276-16.034-14.417c-0.039-0.544-0.09-1.12-0.09-1.703
	c0-8.892,7.234-16.126,16.123-16.126c8.92,0,16.179,7.234,16.179,16.126C335.523,425.853,335.476,426.418,335.447,426.805z
	 M624.476,391.942c-18.381,0-33.337,14.955-33.337,33.339c0,1.03,0.064,2.067,0.154,3.172c1.647,17.197,15.914,30.162,33.182,30.162
	c17.3,0,31.591-12.966,33.252-30.342c0.073-0.947,0.14-1.972,0.14-2.992C657.869,406.897,642.888,391.942,624.476,391.942z
	 M640.58,426.805c-0.799,8.321-7.722,14.596-16.103,14.596c-8.351,0-15.249-6.276-16.036-14.451
	c-0.039-0.532-0.087-1.098-0.087-1.67c0-8.892,7.234-16.126,16.123-16.126c8.92,0,16.179,7.234,16.179,16.126
	C640.656,425.865,640.605,426.441,640.58,426.805z M624.476,367.445c-31.891,0-57.837,25.943-57.837,57.837
	c0,1.02,0.009,2.045,0.064,2.746c1.426,30.891,26.803,55.091,57.772,55.091c30.969,0,56.343-24.2,57.752-54.845
	c0.073-0.947,0.081-1.972,0.081-2.992C682.31,393.387,656.367,367.445,624.476,367.445z M665.048,427.231
	c-1,21.685-18.821,38.673-40.573,38.673s-39.576-16.989-40.592-38.92c-0.039-0.544-0.03-1.12-0.03-1.703
	c0-22.402,18.225-40.624,40.624-40.624c22.399,0,40.621,18.222,40.621,40.624C665.096,425.865,665.105,426.441,665.048,427.231z
	 M744.865,295.527l-69.082-120.839c-1.532-2.684-4.384-4.337-7.472-4.337H556.033v-32.863c0-4.752-3.852-8.607-8.607-8.607H169.699
	c-2.779,0-5.388,1.345-7.004,3.603L47.603,293.594c-1.045,1.463-1.605,3.216-1.603,5.015l0.173,129.031
	c0.005,4.752,3.858,8.595,8.607,8.595h28.688h57.727c5.111,26.851,28.58,46.883,56.738,46.883c28.224,0,51.739-20.123,56.765-46.883
	h7.963c5.108,26.851,28.553,46.883,56.683,46.883c28.233,0,51.752-20.135,56.765-46.882l175.912,0.016c0,0,0.003,0,0.005,0
	c2.396,0,4.679-1.177,6.31-2.93c1.631-1.76,2.449-4.298,2.267-6.685l0.03-1.356c0-35.205,28.64-63.843,63.843-63.843
	c35.203,0,63.841,28.638,63.841,63.843l0.025,1.709c-0.182,2.393,0.641,4.752,2.272,6.511c1.628,1.753,3.914,2.751,6.31,2.751
	c0.003,0,0.009,0,0.014,0l40.455-0.017c4.755,0,8.607-3.855,8.607-8.607V299.798C745.999,298.301,745.607,296.827,744.865,295.527z
	 M169.172,341.872l77.523-195.776h73.289L242.46,341.872H169.172z M338.498,146.096h73.289l-77.523,195.776h-73.289L338.498,146.096
	z M430.302,146.096h73.289l-77.523,195.776h-73.289L430.302,146.096z M522.104,146.096h16.716v195.776h-94.239L522.104,146.096z
	 M79.151,419.023H63.375l-0.159-117.674l110.913-155.253h54.052l-77.523,195.776h-9.646c-2.718,0-5.275,1.283-6.9,3.463
	L79.151,419.023z M238.509,427.231c-1,21.685-18.824,38.673-40.576,38.673s-39.573-16.989-40.592-38.954
	c-0.039-0.532-0.03-1.098-0.03-1.67c0-22.402,18.225-40.624,40.624-40.624s40.624,18.222,40.624,40.624
	C238.557,425.865,238.566,426.441,238.509,427.231z M359.917,427.231c-1,21.685-18.821,38.673-40.573,38.673
	c-21.721,0-39.516-16.989-40.534-38.92c-0.039-0.544-0.03-1.12-0.03-1.703c0-22.402,18.197-40.624,40.564-40.624
	c22.399,0,40.624,18.222,40.624,40.624C359.968,425.853,359.976,426.418,359.917,427.231z M728.785,419.023l-23.494,0.005
	c-3.202-41.789-38.225-74.803-80.815-74.803c-42.591,0-77.615,33.026-80.818,74.809l-166.831-0.011
	c-3.131-28.958-27.707-51.578-57.482-51.578c-29.746,0-54.297,22.62-57.425,51.578h-6.503
	c-3.132-28.958-27.708-51.578-57.483-51.578s-54.351,22.62-57.483,51.578h-39.826l44.704-59.938h402.099
	c4.755,0,8.607-3.855,8.607-8.607V187.565h107.285l65.468,114.518v116.94H728.785z"/>
</svg>
