<?xml version="1.0" encoding="utf-8"?>
<!-- Generator: Adobe Illustrator 17.0.0, SVG Export Plug-In . SVG Version: 6.00 Build 0)  -->
<!DOCTYPE svg PUBLIC "-//W3C//DTD SVG 1.1//EN" "http://www.w3.org/Graphics/SVG/1.1/DTD/svg11.dtd">
<svg version="1.1" id="Capa_1" xmlns="http://www.w3.org/2000/svg" xmlns:xlink="http://www.w3.org/1999/xlink" x="0px" y="0px"
	 width="580px" height="580px" viewBox="106 16 580 580" enable-background="new 106 16 580 580" xml:space="preserve">
<path fill="#3A3A3A" d="M570.409,106.328H447.002V74.05c0-4.444-3.606-8.05-8.05-8.05h-85.911c-4.444,0-8.05,3.606-8.05,8.05v32.277
	H221.59c-19.233,0-34.882,15.649-34.882,34.882v23.746c0,4.444,3.606,8.05,8.05,8.05h22.015l24.333,326.997
	C243.03,525.798,264.794,546,290.657,546h210.68c25.862,0,47.628-20.203,49.551-45.997l24.333-326.997h22.021
	c4.444,0,8.05-3.606,8.05-8.05v-23.746C605.291,121.976,589.642,106.328,570.409,106.328z M361.092,82.1h69.812v24.228h-69.812V82.1
	z M534.83,498.807c-1.3,17.436-16.01,31.093-33.493,31.093h-210.68c-17.482,0-32.193-13.657-33.493-31.093L232.92,173.004h326.155
	L534.83,498.807z M589.192,156.905H202.807v-15.696c0-10.355,8.427-18.782,18.782-18.782h131.452h85.911h131.458
	c10.355,0,18.782,8.427,18.782,18.782v15.696H589.192z M472.167,349.375l11.529,20.617c5.687,9.852,5.687,21.733-0.057,31.68
	c-5.744,9.947-16.031,15.885-27.518,15.885h-46.174l16.401,18.305l-11.991,10.743l-33.195-37.052l30.417-39.678l12.777,9.8
	l-16.697,21.781h48.461c5.665,0,10.743-2.929,13.573-7.835c2.835-4.911,2.835-10.77,0.005-15.674l-11.588-20.711L472.167,349.375z
	 M311.829,369.897l27.049-46.851l-24.214,4.704l-3.071-15.806l48.691-9.465l14.642,48.497l-15.408,4.653l-7.166-23.73
	l-26.584,46.044c-2.835,4.906-2.835,10.765,0,15.674c2.83,4.906,7.908,7.835,13.573,7.835h24.762v16.099h-24.762
	c-11.488,0-21.775-5.938-27.518-15.89C306.08,391.719,306.086,379.844,311.829,369.897z M374.948,292.319l-13.846-8.228
	l9.161-15.418c5.697-9.858,15.984-15.801,27.471-15.801c0,0,0,0,0.005,0c11.482,0.005,21.769,5.943,27.508,15.89l24.09,41.724
	l8.156-24.796l15.293,5.031l-16.121,49.001l-51.637-12.96l3.92-15.617l25.939,6.509l-23.581-40.84
	c-2.835-4.906-7.908-7.835-13.573-7.84c-5.67,0-10.743,2.935-13.578,7.84L374.948,292.319z"/>
</svg>
