<?xml version="1.0" encoding="utf-8"?>
<!-- Generator: Adobe Illustrator 17.0.0, SVG Export Plug-In . SVG Version: 6.00 Build 0)  -->
<!DOCTYPE svg PUBLIC "-//W3C//DTD SVG 1.1//EN" "http://www.w3.org/Graphics/SVG/1.1/DTD/svg11.dtd">
<svg version="1.1" id="Capa_1" xmlns="http://www.w3.org/2000/svg" xmlns:xlink="http://www.w3.org/1999/xlink" x="0px" y="0px"
	 width="792px" height="612px" viewBox="0 0 792 612" enable-background="new 0 0 792 612" xml:space="preserve">
<path d="M562.578,110.666H441.702V79.05c0-4.353-3.532-7.885-7.885-7.885h-84.149c-4.353,0-7.885,3.532-7.885,7.885v31.615H220.912
	c-18.839,0-34.167,15.328-34.167,34.167v23.259c0,4.353,3.532,7.885,7.885,7.885h21.564l23.834,320.292
	c1.884,25.266,23.202,45.054,48.535,45.054h206.36c25.332,0,46.651-19.789,48.535-45.054l23.834-320.292h21.569
	c4.353,0,7.885-3.532,7.885-7.885v-23.259C596.745,125.993,581.417,110.666,562.578,110.666z M357.553,86.935h68.38v23.731h-68.38
	V86.935z M527.729,495.097c-1.273,17.078-15.682,30.455-32.806,30.455h-206.36c-17.124,0-31.533-13.377-32.806-30.455
	l-23.747-319.122h319.467L527.729,495.097z M580.976,160.206H202.514v-15.374c0-10.143,8.254-18.397,18.397-18.397h128.756h84.149
	h128.762c10.143,0,18.397,8.254,18.397,18.397V160.206z M466.351,348.729l11.293,20.194c5.57,9.65,5.57,21.287-0.056,31.03
	c-5.626,9.743-15.702,15.559-26.954,15.559h-45.227l16.065,17.93l-11.745,10.523l-32.514-36.292l29.793-38.864l12.515,9.599
	l-16.355,21.334h47.467c5.549,0,10.523-2.869,13.295-7.674c2.777-4.81,2.777-10.549,0.005-15.353l-11.35-20.286L466.351,348.729z
	 M309.301,368.83l26.494-45.89l-23.717,4.608l-3.008-15.482l47.693-9.271l14.342,47.503l-15.092,4.558l-7.019-23.243l-26.039,45.1
	c-2.777,4.805-2.777,10.544,0,15.353c2.772,4.805,7.746,7.674,13.295,7.674h24.254v15.769H336.25
	c-11.252,0-21.328-5.816-26.954-15.564C303.669,390.205,303.675,378.573,309.301,368.83z M371.125,292.843l-13.562-8.059
	l8.973-15.102c5.58-9.656,15.656-15.477,26.908-15.477c0,0,0,0,0.005,0c11.247,0.005,21.323,5.821,26.944,15.564l23.596,40.868
	l7.989-24.288l14.979,4.928l-15.79,47.996l-50.578-12.694l3.84-15.297l25.407,6.376l-23.097-40.003
	c-2.777-4.805-7.746-7.674-13.295-7.679c-5.554,0-10.523,2.875-13.3,7.679L371.125,292.843z"/>
</svg>
