<?xml version="1.0" encoding="utf-8"?>
<!-- Generator: Adobe Illustrator 17.0.0, SVG Export Plug-In . SVG Version: 6.00 Build 0)  -->
<!DOCTYPE svg PUBLIC "-//W3C//DTD SVG 1.1//EN" "http://www.w3.org/Graphics/SVG/1.1/DTD/svg11.dtd">
<svg version="1.1" id="Capa_1" xmlns="http://www.w3.org/2000/svg" xmlns:xlink="http://www.w3.org/1999/xlink" x="0px" y="0px"
	 width="792px" height="612px" viewBox="0 0 792 612" enable-background="new 0 0 792 612" xml:space="preserve">
<path d="M562.578,110.666H441.702V79.05c0-4.353-3.532-7.885-7.885-7.885h-84.149c-4.353,0-7.885,3.532-7.885,7.885v31.615H220.912
	c-18.839,0-34.167,15.328-34.167,34.167v23.259c0,4.353,3.532,7.885,7.885,7.885h21.564l23.834,320.292
	c1.884,25.266,23.202,45.054,48.534,45.054h206.36c25.332,0,46.651-19.789,48.534-45.054l23.834-320.292h21.569
	c4.353,0,7.885-3.532,7.885-7.885v-23.259C596.745,125.993,581.417,110.666,562.578,110.666z M357.553,86.935h68.38v23.731h-68.38
	V86.935z M322.955,392.068c2.772,4.805,7.746,7.674,13.295,7.674h24.255v15.769H336.25c-11.252,0-21.328-5.816-26.954-15.564
	c-5.626-9.743-5.621-21.375,0.005-31.117l26.494-45.89l-23.717,4.608l-3.008-15.482l47.693-9.271l14.342,47.503l-15.092,4.558
	l-7.019-23.243l-26.039,45.1C320.178,381.52,320.178,387.259,322.955,392.068z M357.563,284.784l8.973-15.102
	c5.58-9.656,15.656-15.477,26.908-15.477c0,0,0,0,0.005,0c11.247,0.005,21.323,5.821,26.944,15.564l23.596,40.868l7.989-24.288
	l14.979,4.928l-15.79,47.996l-50.578-12.694l3.84-15.297l25.407,6.376l-23.097-40.003c-2.777-4.805-7.746-7.674-13.295-7.679
	c-5.554,0-10.523,2.875-13.3,7.679l-9.019,15.189L357.563,284.784z M477.588,399.953c-5.626,9.743-15.703,15.559-26.954,15.559
	h-45.227l16.065,17.93l-11.745,10.523l-32.514-36.292l29.793-38.864l12.515,9.599l-16.355,21.334h47.467
	c5.549,0,10.523-2.869,13.295-7.674c2.777-4.81,2.777-10.549,0.005-15.353l-11.349-20.286l13.767-7.7l11.293,20.194
	C483.214,378.573,483.214,390.21,477.588,399.953z M580.976,160.206H202.514v-15.374c0-10.143,8.254-18.397,18.397-18.397h128.756
	h84.149h128.761c10.143,0,18.397,8.254,18.397,18.397V160.206z"/>
</svg>
