<?xml version="1.0" encoding="utf-8"?>
<!-- Generator: Adobe Illustrator 17.0.0, SVG Export Plug-In . SVG Version: 6.00 Build 0)  -->
<!DOCTYPE svg PUBLIC "-//W3C//DTD SVG 1.1//EN" "http://www.w3.org/Graphics/SVG/1.1/DTD/svg11.dtd">
<svg version="1.1" id="Capa_1" xmlns="http://www.w3.org/2000/svg" xmlns:xlink="http://www.w3.org/1999/xlink" x="0px" y="0px"
	 width="580px" height="580px" viewBox="137.75 1.25 580 580" enable-background="new 137.75 1.25 580 580" xml:space="preserve">
<path fill="#3A3A3A" d="M602.16,91.578H478.753V59.3c0-4.444-3.606-8.05-8.05-8.05h-85.911c-4.444,0-8.05,3.606-8.05,8.05v32.277
	H253.341c-19.233,0-34.882,15.649-34.882,34.882v23.746c0,4.444,3.606,8.05,8.05,8.05h22.015l24.333,326.997
	c1.923,25.795,23.688,45.997,49.55,45.997h210.68c25.862,0,47.628-20.203,49.55-45.997l24.333-326.997h22.021
	c4.444,0,8.05-3.606,8.05-8.05v-23.746C637.042,107.226,621.393,91.578,602.16,91.578z M392.843,67.35h69.812v24.228h-69.812V67.35z
	 M357.52,378.871c2.83,4.906,7.908,7.835,13.573,7.835h24.763v16.099h-24.763c-11.488,0-21.775-5.938-27.518-15.89
	c-5.744-9.947-5.739-21.823,0.005-31.768l27.049-46.851l-24.214,4.704l-3.071-15.806l48.691-9.465l14.642,48.497l-15.408,4.653
	l-7.166-23.73l-26.584,46.044C354.685,368.102,354.685,373.962,357.52,378.871z M392.853,269.341l9.161-15.418
	c5.697-9.858,15.984-15.801,27.471-15.801c0,0,0,0,0.005,0c11.482,0.005,21.769,5.943,27.508,15.89l24.09,41.724l8.156-24.796
	l15.293,5.031l-16.121,49.001l-51.637-12.96l3.92-15.617l25.939,6.509l-23.581-40.84c-2.835-4.906-7.908-7.835-13.573-7.84
	c-5.67,0-10.743,2.935-13.578,7.84l-9.208,15.507L392.853,269.341z M515.391,386.921c-5.744,9.947-16.032,15.885-27.518,15.885
	h-46.174l16.401,18.305l-11.991,10.743l-33.195-37.052l30.417-39.678l12.777,9.8l-16.697,21.781h48.461
	c5.665,0,10.743-2.929,13.573-7.835c2.835-4.911,2.835-10.77,0.005-15.674l-11.587-20.711l14.055-7.861l11.529,20.617
	C521.134,365.094,521.134,376.974,515.391,386.921z M620.943,142.155H234.558v-15.696c0-10.355,8.427-18.782,18.782-18.782h131.452
	h85.911h131.457c10.355,0,18.782,8.427,18.782,18.782v15.696H620.943z"/>
</svg>
