<?xml version="1.0" encoding="utf-8"?>
<!-- Generator: Adobe Illustrator 17.0.0, SVG Export Plug-In . SVG Version: 6.00 Build 0)  -->
<!DOCTYPE svg PUBLIC "-//W3C//DTD SVG 1.1//EN" "http://www.w3.org/Graphics/SVG/1.1/DTD/svg11.dtd">
<svg version="1.1" id="Capa_1" xmlns="http://www.w3.org/2000/svg" xmlns:xlink="http://www.w3.org/1999/xlink" x="0px" y="0px"
	 width="792px" height="612px" viewBox="0 0 792 612" enable-background="new 0 0 792 612" xml:space="preserve">
<g>
	<path d="M398.988,124.432c-1.793-1.434-4.184-1.434-5.977,0L206.543,273.607c-1.076,0.956-1.793,2.271-1.793,3.705v274.922
		c0,1.315,1.076,2.391,2.391,2.391h129.094c1.315,0,2.391-1.076,2.391-2.391V384.891c0-1.315,1.076-2.391,2.391-2.391h109.969
		c1.315,0,2.391,1.076,2.391,2.391v167.344c0,1.315,1.076,2.391,2.391,2.391h129.094c1.315,0,2.391-1.076,2.391-2.391V277.313
		c0-1.434-0.717-2.869-1.793-3.705C585.457,273.607,398.988,124.432,398.988,124.432z"/>
	<path d="M638.29,244.083L412.376,63.113c-4.542-3.705-10.399-5.738-16.376-5.738s-11.834,2.032-16.376,5.737l-98.374,79.966V92.637
		c0-1.315-1.076-2.391-2.391-2.391h-71.719c-1.315,0-2.391,1.076-2.391,2.391v110.208L153.71,244.8
		c-3.705,2.988-6.096,7.411-6.335,12.192c-0.239,4.781,1.554,9.443,4.901,12.79c3.108,3.108,7.291,4.901,11.834,4.901
		c3.825,0,7.53-1.315,10.519-3.705L394.446,94.071c0.598-0.478,1.076-0.478,1.554-0.478s0.956,0.12,1.554,0.478L617.372,270.26
		c2.988,2.391,6.694,3.705,10.519,3.705c4.423,0,8.606-1.673,11.834-4.901c3.466-3.347,5.259-8.009,5.02-12.79
		C644.386,251.494,642.115,247.071,638.29,244.083L638.29,244.083z"/>
</g>
</svg>
