<?xml version="1.0" encoding="utf-8"?>
<!-- Generator: Adobe Illustrator 17.0.0, SVG Export Plug-In . SVG Version: 6.00 Build 0)  -->
<!DOCTYPE svg PUBLIC "-//W3C//DTD SVG 1.1//EN" "http://www.w3.org/Graphics/SVG/1.1/DTD/svg11.dtd">
<svg version="1.1" id="Capa_1" xmlns="http://www.w3.org/2000/svg" xmlns:xlink="http://www.w3.org/1999/xlink" x="0px" y="0px"
	 width="792px" height="612px" viewBox="0 0 792 612" enable-background="new 0 0 792 612" xml:space="preserve">
<g>
	<path d="M395,162L235,290v208h112V370h96v128h112V290L395,162z M539,482h-80V354H331v128h-80V297.691l144-115.203l144,115.203V482z
		 M539,482"/>
	<path d="M395,114l-96,76.801V146h-64v96l-32,25.496l11.512,11.387L395,134.488l180.488,144.395L587,267.496L395,114z M283,203.598
		l-32,25.601V162h32V203.598z M283,203.598"/>
</g>
</svg>
