<?xml version="1.0" encoding="utf-8"?>
<!-- Generator: Adobe Illustrator 17.0.0, SVG Export Plug-In . SVG Version: 6.00 Build 0)  -->
<!DOCTYPE svg PUBLIC "-//W3C//DTD SVG 1.1//EN" "http://www.w3.org/Graphics/SVG/1.1/DTD/svg11.dtd">
<svg version="1.1" id="Capa_1" xmlns="http://www.w3.org/2000/svg" xmlns:xlink="http://www.w3.org/1999/xlink" x="0px" y="0px"
	 width="580px" height="580px" viewBox="106 16 580 580" enable-background="new 106 16 580 580" xml:space="preserve">
<g>
	<path fill="#3A3A3A" d="M425.783,306.911c26.242-11.314,44.68-37.025,44.68-66.928c0-40.32-33.406-73.123-74.448-73.123
		c-41.034,0-74.441,32.803-74.441,73.123c0,29.918,18.421,55.613,44.68,66.928c-53.101,13.104-92.587,60.223-92.587,116.353v8.542
		H518.4v-8.542h-0.031C518.37,367.135,478.883,320.015,425.783,306.911z M338.645,239.968c0-30.909,25.731-56.041,57.356-56.041
		c31.628,0,57.356,25.151,57.356,56.041c0,30.894-25.727,56.041-57.356,56.041C364.376,296.008,338.645,270.877,338.645,239.968z
		 M291.062,414.718c4.457-52.829,49.82-94.464,104.939-94.464s100.48,41.655,104.939,94.464H291.062z"/>
	<path fill="#3A3A3A" d="M549.534,66H242.466c-19.099,0-34.632,15.533-34.632,34.632v410.715c0,19.12,15.533,34.653,34.632,34.653
		h307.068c19.105,0,34.633-15.533,34.633-34.633V100.632C584.166,81.533,568.639,66,549.534,66z M567.085,511.346
		c0,9.672-7.88,17.551-17.551,17.551H242.466c-9.672,0-17.545-7.878-17.545-17.551V100.632c0-9.672,7.873-17.545,17.545-17.545
		h307.068c9.672,0,17.551,7.873,17.551,17.545V511.346z"/>
</g>
</svg>
