<?xml version="1.0" encoding="utf-8"?>
<!-- Generator: Adobe Illustrator 17.0.0, SVG Export Plug-In . SVG Version: 6.00 Build 0)  -->
<!DOCTYPE svg PUBLIC "-//W3C//DTD SVG 1.1//EN" "http://www.w3.org/Graphics/SVG/1.1/DTD/svg11.dtd">
<svg version="1.1" id="Capa_2" xmlns="http://www.w3.org/2000/svg" xmlns:xlink="http://www.w3.org/1999/xlink" x="0px" y="0px"
	 width="580px" height="580px" viewBox="106 16 580 580" enable-background="new 106 16 580 580" xml:space="preserve">
<path fill="#3A3A3A" d="M549.534,66H242.466c-19.099,0-34.632,15.533-34.632,34.632v410.715c0,19.12,15.533,34.653,34.632,34.653
	h307.068c19.105,0,34.633-15.533,34.633-34.633V100.632C584.166,81.533,568.639,66,549.534,66z M396.001,183.927
	c31.628,0,57.356,25.151,57.356,56.041c0,30.894-25.727,56.041-57.356,56.041c-31.625-0.001-57.356-25.132-57.356-56.041
	S364.376,183.927,396.001,183.927z M291.062,414.718c4.457-52.829,49.82-94.464,104.939-94.464s100.48,41.655,104.939,94.464
	H291.062z"/>
</svg>
