<?xml version="1.0" encoding="utf-8"?>
<!-- Generator: Adobe Illustrator 17.0.0, SVG Export Plug-In . SVG Version: 6.00 Build 0)  -->
<!DOCTYPE svg PUBLIC "-//W3C//DTD SVG 1.1//EN" "http://www.w3.org/Graphics/SVG/1.1/DTD/svg11.dtd">
<svg version="1.1" id="Capa_1" xmlns="http://www.w3.org/2000/svg" xmlns:xlink="http://www.w3.org/1999/xlink" x="0px" y="0px"
	 width="792px" height="612px" viewBox="0 0 792 612" enable-background="new 0 0 792 612" xml:space="preserve">
<g>
	<path d="M422.484,301.763c27.306-11.773,46.491-38.526,46.491-69.641c0-41.955-34.76-76.088-77.466-76.088
		c-42.698,0-77.459,34.133-77.459,76.088c0,31.131,19.168,57.868,46.491,69.641c-55.254,13.635-96.341,62.665-96.341,121.07v8.888
		h254.656v-8.888h-0.032C518.825,364.428,477.737,315.398,422.484,301.763z M331.814,232.106c0-32.162,26.774-58.313,59.681-58.313
		c32.91,0,59.681,26.171,59.681,58.313c0,32.147-26.77,58.313-59.681,58.313C358.588,290.418,331.814,264.268,331.814,232.106z
		 M282.302,413.941c4.638-54.971,51.84-98.294,109.193-98.294s104.554,43.344,109.193,98.294H282.302z"/>
	<path d="M551.253,51.085H231.735c-19.873,0-36.036,16.163-36.036,36.036v427.366c0,19.895,16.163,36.058,36.036,36.058h319.517
		c19.88,0,36.037-16.163,36.037-36.037V87.121C587.289,67.248,571.132,51.085,551.253,51.085z M569.515,514.486
		c0,10.064-8.199,18.262-18.263,18.262H231.735c-10.064,0-18.256-8.197-18.256-18.262V87.121c0-10.064,8.192-18.256,18.256-18.256
		h319.517c10.064,0,18.263,8.192,18.263,18.256V514.486z"/>
</g>
</svg>
