<?xml version="1.0" encoding="utf-8"?>
<!-- Generator: Adobe Illustrator 17.0.0, SVG Export Plug-In . SVG Version: 6.00 Build 0)  -->
<!DOCTYPE svg PUBLIC "-//W3C//DTD SVG 1.1//EN" "http://www.w3.org/Graphics/SVG/1.1/DTD/svg11.dtd">
<svg version="1.1" id="Capa_2" xmlns="http://www.w3.org/2000/svg" xmlns:xlink="http://www.w3.org/1999/xlink" x="0px" y="0px"
	 width="792px" height="612px" viewBox="0 0 792 612" enable-background="new 0 0 792 612" xml:space="preserve">
<path d="M551.253,51.085H231.735c-19.873,0-36.036,16.163-36.036,36.036v427.366c0,19.895,16.163,36.058,36.036,36.058h319.517
	c19.88,0,36.037-16.163,36.037-36.037V87.121C587.289,67.248,571.132,51.085,551.253,51.085z M391.495,173.793
	c32.91,0,59.681,26.171,59.681,58.313c0,32.147-26.77,58.313-59.681,58.313c-32.907-0.001-59.681-26.151-59.681-58.313
	C331.814,199.944,358.588,173.793,391.495,173.793z M282.302,413.941c4.638-54.971,51.84-98.294,109.193-98.294
	c57.353,0,104.554,43.344,109.193,98.294H282.302z"/>
</svg>
